<svg width="2348" height="1604" viewBox="0 0 2348 1604" fill="none" xmlns="http://www.w3.org/2000/svg">
<rect width="2348" height="1604" fill="url(#paint0_linear_10_4)"/>
<path d="M351.895 298L348.008 287.902H336.016L332.051 298H330L341.23 269.348H343.066L354.004 298H351.895ZM347.363 286.086L343.418 275.383C343.314 275.109 343.184 274.758 343.027 274.328C342.884 273.898 342.728 273.443 342.559 272.961C342.402 272.479 342.246 272.023 342.09 271.594C341.96 272.049 341.816 272.505 341.66 272.961C341.504 273.417 341.354 273.859 341.211 274.289C341.068 274.706 340.931 275.083 340.801 275.422L336.699 286.086H347.363ZM359.551 298H357.559V267.609H359.551V298ZM383.574 298L379.062 283.742C378.919 283.312 378.789 282.902 378.672 282.512C378.555 282.121 378.444 281.743 378.34 281.379C378.236 281.014 378.138 280.663 378.047 280.324C377.956 279.973 377.865 279.628 377.773 279.289H377.676C377.585 279.628 377.493 279.973 377.402 280.324C377.311 280.676 377.214 281.04 377.109 281.418C377.005 281.796 376.895 282.18 376.777 282.57C376.66 282.961 376.53 283.365 376.387 283.781L371.719 298H369.688L363.652 276.77H365.742L369.473 290.344C369.694 291.138 369.883 291.848 370.039 292.473C370.195 293.098 370.332 293.664 370.449 294.172C370.566 294.68 370.671 295.161 370.762 295.617H370.859C370.938 295.292 371.022 294.953 371.113 294.602C371.204 294.237 371.302 293.846 371.406 293.43C371.51 293.013 371.634 292.57 371.777 292.102C371.921 291.633 372.077 291.125 372.246 290.578L376.797 276.77H378.75L383.125 290.539C383.333 291.203 383.522 291.841 383.691 292.453C383.874 293.052 384.03 293.612 384.16 294.133C384.303 294.654 384.421 295.142 384.512 295.598H384.629C384.681 295.168 384.759 294.699 384.863 294.191C384.98 293.671 385.117 293.091 385.273 292.453C385.443 291.815 385.632 291.112 385.84 290.344L389.434 276.77H391.426L385.664 298H383.574ZM402.93 276.398C405.26 276.398 407.005 276.984 408.164 278.156C409.323 279.328 409.902 281.197 409.902 283.762V298H408.379L408.027 294.289H407.91C407.454 295.083 406.901 295.793 406.25 296.418C405.599 297.03 404.798 297.512 403.848 297.863C402.91 298.215 401.764 298.391 400.41 298.391C399.043 298.391 397.871 298.163 396.895 297.707C395.931 297.251 395.182 296.587 394.648 295.715C394.128 294.842 393.867 293.781 393.867 292.531C393.867 290.422 394.74 288.82 396.484 287.727C398.229 286.62 400.736 285.995 404.004 285.852L407.949 285.656V284.113C407.949 281.939 407.52 280.389 406.66 279.465C405.801 278.54 404.531 278.078 402.852 278.078C401.758 278.078 400.703 278.221 399.688 278.508C398.685 278.781 397.663 279.178 396.621 279.699L395.996 278.059C397.012 277.577 398.099 277.18 399.258 276.867C400.43 276.555 401.654 276.398 402.93 276.398ZM407.93 287.199L404.219 287.355C401.523 287.486 399.473 287.967 398.066 288.801C396.66 289.634 395.957 290.884 395.957 292.551C395.957 293.892 396.374 294.921 397.207 295.637C398.053 296.353 399.225 296.711 400.723 296.711C403.053 296.711 404.831 296.047 406.055 294.719C407.292 293.391 407.917 291.581 407.93 289.289V287.199ZM413.223 276.77H415.312L420.469 290.246C420.781 291.04 421.055 291.776 421.289 292.453C421.536 293.117 421.751 293.729 421.934 294.289C422.116 294.836 422.266 295.337 422.383 295.793H422.5C422.695 295.194 422.956 294.426 423.281 293.488C423.607 292.538 423.978 291.483 424.395 290.324L429.492 276.77H431.602L421.914 301.984C421.445 303.208 420.931 304.243 420.371 305.09C419.811 305.949 419.154 306.594 418.398 307.023C417.643 307.466 416.732 307.688 415.664 307.688C415.182 307.688 414.746 307.648 414.355 307.57C413.965 307.505 413.587 307.414 413.223 307.297V305.598C413.561 305.702 413.906 305.786 414.258 305.852C414.622 305.93 415.02 305.969 415.449 305.969C416.191 305.969 416.829 305.812 417.363 305.5C417.91 305.201 418.398 304.732 418.828 304.094C419.258 303.456 419.661 302.642 420.039 301.652L421.484 297.883L413.223 276.77ZM448.359 292.434C448.359 293.697 448.04 294.777 447.402 295.676C446.777 296.561 445.859 297.238 444.648 297.707C443.438 298.163 441.947 298.391 440.176 298.391C438.704 298.391 437.389 298.26 436.23 298C435.072 297.74 434.102 297.421 433.32 297.043V295.09C434.297 295.572 435.378 295.962 436.562 296.262C437.747 296.561 438.965 296.711 440.215 296.711C442.402 296.711 443.978 296.34 444.941 295.598C445.905 294.855 446.387 293.84 446.387 292.551C446.387 291.704 446.146 291.008 445.664 290.461C445.195 289.901 444.518 289.419 443.633 289.016C442.747 288.612 441.68 288.202 440.43 287.785C439.128 287.342 437.969 286.906 436.953 286.477C435.951 286.034 435.163 285.454 434.59 284.738C434.017 284.009 433.73 283.02 433.73 281.77C433.73 280.064 434.414 278.736 435.781 277.785C437.148 276.835 438.984 276.359 441.289 276.359C442.565 276.359 443.75 276.483 444.844 276.73C445.951 276.965 446.953 277.271 447.852 277.648L447.148 279.328C446.341 278.951 445.41 278.645 444.355 278.41C443.301 278.176 442.246 278.059 441.191 278.059C439.46 278.059 438.105 278.365 437.129 278.977C436.152 279.589 435.664 280.487 435.664 281.672C435.664 282.583 435.898 283.299 436.367 283.82C436.836 284.328 437.507 284.758 438.379 285.109C439.251 285.448 440.286 285.826 441.484 286.242C442.721 286.672 443.861 287.121 444.902 287.59C445.957 288.059 446.797 288.664 447.422 289.406C448.047 290.148 448.359 291.158 448.359 292.434ZM466.074 267.609V277.531C466.074 278.104 466.061 278.638 466.035 279.133C466.022 279.628 465.996 280.129 465.957 280.637H466.094C466.445 279.829 466.947 279.107 467.598 278.469C468.262 277.831 469.076 277.323 470.039 276.945C471.016 276.568 472.142 276.379 473.418 276.379C475.033 276.379 476.387 276.659 477.48 277.219C478.587 277.766 479.427 278.605 480 279.738C480.573 280.871 480.859 282.329 480.859 284.113V298H478.906V284.23C478.906 282.121 478.424 280.572 477.461 279.582C476.497 278.592 475.098 278.098 473.262 278.098C471.699 278.098 470.384 278.404 469.316 279.016C468.249 279.615 467.441 280.526 466.895 281.75C466.348 282.961 466.074 284.478 466.074 286.301V298H464.102V267.609H466.074ZM495.781 276.359C497.591 276.359 499.095 276.783 500.293 277.629C501.504 278.475 502.402 279.634 502.988 281.105C503.587 282.577 503.887 284.263 503.887 286.164V287.59H488.555C488.555 290.507 489.225 292.746 490.566 294.309C491.921 295.871 493.854 296.652 496.367 296.652C497.682 296.652 498.822 296.548 499.785 296.34C500.762 296.118 501.842 295.747 503.027 295.227V297.043C501.986 297.512 500.944 297.85 499.902 298.059C498.861 298.28 497.663 298.391 496.309 298.391C494.16 298.391 492.357 297.948 490.898 297.062C489.453 296.164 488.359 294.901 487.617 293.273C486.888 291.646 486.523 289.745 486.523 287.57C486.523 285.448 486.875 283.54 487.578 281.848C488.294 280.155 489.336 278.82 490.703 277.844C492.083 276.854 493.776 276.359 495.781 276.359ZM495.762 278.059C493.73 278.059 492.083 278.736 490.82 280.09C489.57 281.431 488.835 283.371 488.613 285.91H501.836C501.836 284.361 501.615 282.993 501.172 281.809C500.729 280.624 500.059 279.706 499.16 279.055C498.275 278.391 497.142 278.059 495.762 278.059ZM518.184 276.398C518.743 276.398 519.271 276.431 519.766 276.496C520.26 276.561 520.723 276.652 521.152 276.77L520.84 278.586C520.41 278.469 519.974 278.384 519.531 278.332C519.089 278.267 518.613 278.234 518.105 278.234C517.103 278.234 516.204 278.423 515.41 278.801C514.629 279.178 513.965 279.719 513.418 280.422C512.871 281.125 512.454 281.971 512.168 282.961C511.882 283.951 511.738 285.057 511.738 286.281V298H509.746V276.77H511.445L511.641 280.773H511.758C512.083 279.953 512.539 279.217 513.125 278.566C513.724 277.902 514.447 277.375 515.293 276.984C516.139 276.594 517.103 276.398 518.184 276.398ZM533.359 276.359C535.169 276.359 536.673 276.783 537.871 277.629C539.082 278.475 539.98 279.634 540.566 281.105C541.165 282.577 541.465 284.263 541.465 286.164V287.59H526.133C526.133 290.507 526.803 292.746 528.145 294.309C529.499 295.871 531.432 296.652 533.945 296.652C535.26 296.652 536.4 296.548 537.363 296.34C538.34 296.118 539.421 295.747 540.605 295.227V297.043C539.564 297.512 538.522 297.85 537.48 298.059C536.439 298.28 535.241 298.391 533.887 298.391C531.738 298.391 529.935 297.948 528.477 297.062C527.031 296.164 525.938 294.901 525.195 293.273C524.466 291.646 524.102 289.745 524.102 287.57C524.102 285.448 524.453 283.54 525.156 281.848C525.872 280.155 526.914 278.82 528.281 277.844C529.661 276.854 531.354 276.359 533.359 276.359ZM533.34 278.059C531.309 278.059 529.661 278.736 528.398 280.09C527.148 281.431 526.413 283.371 526.191 285.91H539.414C539.414 284.361 539.193 282.993 538.75 281.809C538.307 280.624 537.637 279.706 536.738 279.055C535.853 278.391 534.72 278.059 533.34 278.059ZM565.605 278.41H560.605V298H558.633V278.41H554.688V277.238L558.633 276.73V274.387C558.633 272.824 558.854 271.529 559.297 270.5C559.753 269.458 560.436 268.684 561.348 268.176C562.272 267.655 563.438 267.395 564.844 267.395C565.573 267.395 566.23 267.453 566.816 267.57C567.402 267.674 567.949 267.811 568.457 267.98L568.008 269.641C567.552 269.484 567.044 269.354 566.484 269.25C565.938 269.146 565.397 269.094 564.863 269.094C563.366 269.094 562.279 269.51 561.602 270.344C560.938 271.164 560.605 272.505 560.605 274.367V276.77H565.605V278.41ZM587.344 287.355C587.344 288.996 587.142 290.493 586.738 291.848C586.335 293.189 585.736 294.348 584.941 295.324C584.147 296.301 583.158 297.056 581.973 297.59C580.801 298.124 579.434 298.391 577.871 298.391C576.387 298.391 575.065 298.13 573.906 297.609C572.747 297.076 571.764 296.32 570.957 295.344C570.163 294.367 569.557 293.208 569.141 291.867C568.724 290.513 568.516 289.009 568.516 287.355C568.516 285.077 568.893 283.117 569.648 281.477C570.417 279.823 571.51 278.56 572.93 277.688C574.362 276.802 576.074 276.359 578.066 276.359C580.124 276.359 581.836 276.828 583.203 277.766C584.583 278.69 585.618 279.979 586.309 281.633C586.999 283.286 587.344 285.194 587.344 287.355ZM570.547 287.355C570.547 289.217 570.814 290.845 571.348 292.238C571.882 293.632 572.689 294.719 573.77 295.5C574.863 296.281 576.243 296.672 577.91 296.672C579.616 296.672 581.016 296.281 582.109 295.5C583.203 294.719 584.01 293.625 584.531 292.219C585.052 290.812 585.312 289.191 585.312 287.355C585.312 285.572 585.065 283.983 584.57 282.59C584.076 281.197 583.294 280.103 582.227 279.309C581.159 278.501 579.766 278.098 578.047 278.098C575.586 278.098 573.717 278.918 572.441 280.559C571.178 282.199 570.547 284.465 570.547 287.355ZM601.66 276.398C602.22 276.398 602.747 276.431 603.242 276.496C603.737 276.561 604.199 276.652 604.629 276.77L604.316 278.586C603.887 278.469 603.451 278.384 603.008 278.332C602.565 278.267 602.09 278.234 601.582 278.234C600.579 278.234 599.681 278.423 598.887 278.801C598.105 279.178 597.441 279.719 596.895 280.422C596.348 281.125 595.931 281.971 595.645 282.961C595.358 283.951 595.215 285.057 595.215 286.281V298H593.223V276.77H594.922L595.117 280.773H595.234C595.56 279.953 596.016 279.217 596.602 278.566C597.201 277.902 597.923 277.375 598.77 276.984C599.616 276.594 600.579 276.398 601.66 276.398ZM621.152 267.609V277.531C621.152 278.104 621.139 278.638 621.113 279.133C621.1 279.628 621.074 280.129 621.035 280.637H621.172C621.523 279.829 622.025 279.107 622.676 278.469C623.34 277.831 624.154 277.323 625.117 276.945C626.094 276.568 627.22 276.379 628.496 276.379C630.111 276.379 631.465 276.659 632.559 277.219C633.665 277.766 634.505 278.605 635.078 279.738C635.651 280.871 635.938 282.329 635.938 284.113V298H633.984V284.23C633.984 282.121 633.503 280.572 632.539 279.582C631.576 278.592 630.176 278.098 628.34 278.098C626.777 278.098 625.462 278.404 624.395 279.016C623.327 279.615 622.52 280.526 621.973 281.75C621.426 282.961 621.152 284.478 621.152 286.301V298H619.18V267.609H621.152ZM650.859 276.359C652.669 276.359 654.173 276.783 655.371 277.629C656.582 278.475 657.48 279.634 658.066 281.105C658.665 282.577 658.965 284.263 658.965 286.164V287.59H643.633C643.633 290.507 644.303 292.746 645.645 294.309C646.999 295.871 648.932 296.652 651.445 296.652C652.76 296.652 653.9 296.548 654.863 296.34C655.84 296.118 656.921 295.747 658.105 295.227V297.043C657.064 297.512 656.022 297.85 654.98 298.059C653.939 298.28 652.741 298.391 651.387 298.391C649.238 298.391 647.435 297.948 645.977 297.062C644.531 296.164 643.438 294.901 642.695 293.273C641.966 291.646 641.602 289.745 641.602 287.57C641.602 285.448 641.953 283.54 642.656 281.848C643.372 280.155 644.414 278.82 645.781 277.844C647.161 276.854 648.854 276.359 650.859 276.359ZM650.84 278.059C648.809 278.059 647.161 278.736 645.898 280.09C644.648 281.431 643.913 283.371 643.691 285.91H656.914C656.914 284.361 656.693 282.993 656.25 281.809C655.807 280.624 655.137 279.706 654.238 279.055C653.353 278.391 652.22 278.059 650.84 278.059ZM666.816 298H664.824V267.609H666.816V298ZM683.281 276.359C686.016 276.359 688.132 277.277 689.629 279.113C691.139 280.949 691.895 283.658 691.895 287.238C691.895 289.634 691.536 291.665 690.82 293.332C690.104 294.986 689.082 296.242 687.754 297.102C686.439 297.961 684.857 298.391 683.008 298.391C681.732 298.391 680.618 298.202 679.668 297.824C678.73 297.434 677.949 296.913 677.324 296.262C676.699 295.598 676.217 294.868 675.879 294.074H675.742C675.781 294.816 675.814 295.591 675.84 296.398C675.866 297.206 675.879 297.967 675.879 298.684V307.395H673.887V276.77H675.527L675.762 281.008H675.879C676.23 280.201 676.725 279.439 677.363 278.723C678.001 278.007 678.809 277.434 679.785 277.004C680.762 276.574 681.927 276.359 683.281 276.359ZM683.027 278.098C681.426 278.098 680.091 278.449 679.023 279.152C677.969 279.842 677.181 280.858 676.66 282.199C676.152 283.527 675.892 285.155 675.879 287.082V287.414C675.879 289.484 676.133 291.21 676.641 292.59C677.161 293.957 677.936 294.979 678.965 295.656C680.007 296.333 681.296 296.672 682.832 296.672C684.342 296.672 685.618 296.301 686.66 295.559C687.702 294.816 688.496 293.742 689.043 292.336C689.59 290.93 689.863 289.224 689.863 287.219C689.863 284.237 689.29 281.971 688.145 280.422C687.012 278.872 685.306 278.098 683.027 278.098Z" fill="#F1F6E6"/>
<path d="M333.6 235.688L336.12 228.992C341.064 231.68 345.192 233.024 348.504 233.024C351.816 233.024 354.336 232.376 356.064 231.08C357.792 229.784 358.656 228.008 358.656 225.752C358.656 223.256 357.552 221.264 355.344 219.776C354.096 218.96 353.04 218.36 352.176 217.976C351.36 217.592 350.064 217.04 348.288 216.32C346.56 215.552 345.216 214.952 344.256 214.52C343.296 214.04 342.144 213.368 340.8 212.504C339.504 211.592 338.496 210.68 337.776 209.768C335.904 207.512 334.968 204.776 334.968 201.56C334.968 197.096 336.504 193.472 339.576 190.688C342.696 187.904 346.608 186.512 351.312 186.512C354.192 186.512 356.976 186.992 359.664 187.952C362.352 188.912 364.416 189.872 365.856 190.832L362.976 197.096C358.272 194.648 354.6 193.424 351.96 193.424C349.32 193.424 347.208 194.072 345.624 195.368C344.04 196.616 343.248 198.272 343.248 200.336C343.248 202.64 344.28 204.488 346.344 205.88C348.072 207.032 350.064 208.088 352.32 209.048C354.576 210.008 356.16 210.704 357.072 211.136C358.032 211.568 359.232 212.264 360.672 213.224C362.112 214.184 363.216 215.144 363.984 216.104C365.904 218.6 366.864 221.528 366.864 224.888C366.864 229.736 365.136 233.456 361.68 236.048C358.272 238.592 353.784 239.864 348.216 239.864C342.648 239.864 337.776 238.472 333.6 235.688ZM393.523 199.688C398.227 199.688 402.115 201.344 405.187 204.656C408.259 207.92 409.795 212.744 409.795 219.128C409.795 225.512 408.211 230.576 405.043 234.32C401.923 238.016 397.219 239.864 390.931 239.864C386.227 239.864 382.339 238.208 379.267 234.896C376.195 231.536 374.659 226.664 374.659 220.28C374.659 213.896 376.219 208.88 379.339 205.232C382.507 201.536 387.235 199.688 393.523 199.688ZM382.867 220.352C382.867 225.152 383.659 228.608 385.243 230.72C386.875 232.784 389.299 233.816 392.515 233.816C395.731 233.816 398.035 232.568 399.427 230.072C400.867 227.576 401.587 223.928 401.587 219.128C401.587 214.28 400.771 210.848 399.139 208.832C397.555 206.768 395.347 205.736 392.515 205.736C388.915 205.736 386.395 206.96 384.955 209.408C383.563 211.856 382.867 215.504 382.867 220.352ZM420.45 184.712L428.226 183.704V227.12C428.226 231.584 429.498 233.816 432.042 233.816C432.666 233.816 433.818 233.648 435.498 233.312L436.434 238.64C436.386 238.64 436.17 238.712 435.786 238.856C435.45 239 435.042 239.144 434.562 239.288C433.362 239.672 431.898 239.864 430.17 239.864C426.858 239.864 424.41 238.76 422.826 236.552C421.242 234.296 420.45 231.2 420.45 227.264V184.712ZM452.867 239L437.603 201.56L445.163 200.192L452.291 218.408C454.883 225.368 456.227 229.352 456.323 230.36H456.827C456.923 229.4 458.291 225.416 460.931 218.408L467.483 200.192L475.043 201.56L459.779 239H452.867ZM508.509 230.792L511.173 235.688C510.357 236.456 508.629 237.344 505.989 238.352C503.349 239.36 500.517 239.864 497.493 239.864C492.117 239.864 487.773 238.232 484.461 234.968C481.197 231.704 479.565 226.808 479.565 220.28C479.565 216.68 480.141 213.512 481.293 210.776C482.445 207.992 483.933 205.832 485.757 204.296C489.501 201.224 493.413 199.688 497.493 199.688C501.621 199.688 504.885 200.744 507.285 202.856C509.733 204.92 510.957 207.464 510.957 210.488C510.957 214.472 509.061 217.736 505.269 220.28C501.477 222.776 495.405 224.024 487.053 224.024C487.053 226.232 487.965 228.416 489.789 230.576C491.661 232.736 494.397 233.816 497.997 233.816C501.645 233.816 505.149 232.808 508.509 230.792ZM503.973 211.136C503.973 209.696 503.421 208.448 502.317 207.392C501.261 206.288 499.749 205.736 497.781 205.736C494.613 205.736 491.997 206.936 489.933 209.336C487.917 211.688 486.885 214.784 486.837 218.624C498.261 218.624 503.973 216.128 503.973 211.136ZM522.065 239V187.16H530.273V239H522.065ZM546.576 192.848L552.696 192.056V201.92H563.856L562.992 207.104H552.696V226.4C552.696 228.992 553.08 230.888 553.848 232.088C554.664 233.24 555.912 233.816 557.592 233.816C559.272 233.816 561.168 233.624 563.28 233.24L564.216 238.496C561.24 239.408 558.36 239.864 555.576 239.864C551.688 239.864 548.928 238.832 547.296 236.768C545.712 234.704 544.92 231.776 544.92 227.984V207.104H539.52V202.64L544.92 201.92L546.576 192.848Z" fill="url(#paint1_linear_10_4)"/>
<path d="M270 240C270 271.48 244.48 297 213 297C181.52 297 156 271.48 156 240C156 208.52 181.52 183 213 183C244.48 183 270 208.52 270 240Z" fill="url(#paint2_linear_10_4)"/>
<path fill-rule="evenodd" clip-rule="evenodd" d="M303 240C303 289.706 262.706 330 213 330C196.97 330 181.918 325.809 168.881 318.463C168.757 318.476 168.63 318.489 168.5 318.5C158.806 319.353 151.258 321.195 145.461 322.609C138.068 324.413 133.522 325.522 131 323C127.42 319.42 130.202 309.003 133.476 296.74C134.318 293.587 135.193 290.312 136 287C136 287 136.121 287.066 136.35 287.191C127.884 273.47 123 257.306 123 240C123 190.294 163.294 150 213 150C262.706 150 303 190.294 303 240ZM213 310C251.66 310 283 278.66 283 240C283 201.34 251.66 170 213 170C174.34 170 143 201.34 143 240C143 278.66 174.34 310 213 310Z" fill="url(#paint3_linear_10_4)"/>
<path d="M204.98 255.084V254.409C205.028 250.006 205.466 246.502 206.294 243.898C207.147 241.294 208.354 239.187 209.917 237.577C211.479 235.967 213.361 234.499 215.563 233.173C216.983 232.274 218.262 231.268 219.398 230.155C220.534 229.042 221.434 227.764 222.097 226.32C222.76 224.875 223.091 223.277 223.091 221.526C223.091 219.419 222.594 217.596 221.6 216.057C220.605 214.518 219.28 213.334 217.623 212.506C215.989 211.653 214.166 211.227 212.154 211.227C210.331 211.227 208.591 211.606 206.934 212.364C205.276 213.121 203.903 214.305 202.814 215.915C201.725 217.501 201.098 219.549 200.932 222.058H190.137C190.302 217.797 191.38 214.198 193.368 211.263C195.357 208.304 197.985 206.066 201.252 204.551C204.542 203.036 208.176 202.278 212.154 202.278C216.51 202.278 220.321 203.095 223.588 204.729C226.855 206.339 229.389 208.599 231.188 211.511C233.011 214.4 233.922 217.773 233.922 221.632C233.922 224.284 233.508 226.675 232.679 228.805C231.851 230.912 230.667 232.795 229.128 234.452C227.613 236.109 225.79 237.577 223.659 238.855C221.647 240.11 220.014 241.412 218.759 242.761C217.528 244.111 216.628 245.709 216.06 247.555C215.492 249.402 215.184 251.687 215.137 254.409V255.084H204.98ZM210.343 276.675C208.401 276.675 206.732 275.988 205.336 274.615C203.939 273.218 203.24 271.537 203.24 269.572C203.24 267.631 203.939 265.974 205.336 264.601C206.732 263.204 208.401 262.506 210.343 262.506C212.26 262.506 213.917 263.204 215.314 264.601C216.735 265.974 217.445 267.631 217.445 269.572C217.445 270.875 217.114 272.07 216.451 273.159C215.811 274.224 214.959 275.077 213.894 275.716C212.828 276.355 211.645 276.675 210.343 276.675Z" fill="url(#paint4_linear_10_4)"/>
<defs>
<linearGradient id="paint0_linear_10_4" x1="1174" y1="0" x2="1174" y2="1604" gradientUnits="userSpaceOnUse">
<stop stop-color="#95BE45"/>
<stop offset="0.0001" stop-color="#87C256"/>
<stop offset="0.09" stop-color="#8EC04D"/>
<stop offset="0.36" stop-color="#78C76A"/>
<stop offset="0.72" stop-color="#73C971"/>
<stop offset="1" stop-color="#3C693B"/>
</linearGradient>
<linearGradient id="paint1_linear_10_4" x1="449" y1="171" x2="449" y2="255" gradientUnits="userSpaceOnUse">
<stop stop-color="#F1F6E6"/>
<stop offset="0.681" stop-color="#ECF2E3"/>
<stop offset="0.921" stop-color="#98AAB0" stop-opacity="0.47"/>
</linearGradient>
<linearGradient id="paint2_linear_10_4" x1="137" y1="322" x2="276" y2="174" gradientUnits="userSpaceOnUse">
<stop stop-color="white"/>
<stop offset="0.346" stop-color="#F6F9EF"/>
<stop offset="0.9997" stop-color="#F1F6E6"/>
<stop offset="0.9998" stop-color="#9BC24F"/>
<stop offset="0.9999" stop-color="#95BE45"/>
<stop offset="1" stop-color="#CEE34D"/>
</linearGradient>
<linearGradient id="paint3_linear_10_4" x1="137" y1="322" x2="276" y2="174" gradientUnits="userSpaceOnUse">
<stop stop-color="white"/>
<stop offset="0.346" stop-color="#F6F9EF"/>
<stop offset="0.9997" stop-color="#F1F6E6"/>
<stop offset="0.9998" stop-color="#9BC24F"/>
<stop offset="0.9999" stop-color="#95BE45"/>
<stop offset="1" stop-color="#CEE34D"/>
</linearGradient>
<linearGradient id="paint4_linear_10_4" x1="212.5" y1="179" x2="212.5" y2="300" gradientUnits="userSpaceOnUse">
<stop stop-color="white"/>
<stop offset="0.0001" stop-color="#F8F8F8"/>
<stop offset="0.805" stop-color="#9F9F9F"/>
<stop offset="0.965" stop-color="#F0F0F0"/>
<stop offset="0.9999" stop-color="#9D9D9D"/>
<stop offset="1" stop-color="#999999"/>
</linearGradient>
</defs>
</svg>
